<svg width="113" height="35" viewBox="0 0 113 35" fill="none" xmlns="http://www.w3.org/2000/svg">
<path d="M14.8003 4.23122V1.95938L6.35378 6.4048L14.8003 4.23122ZM16.2079 1.96251V4.23579L24.8379 6.53133L16.2079 1.96251ZM14.077 5.86832L1.59339 9.08071L5.3531 21.2742L14.077 5.86832ZM29.7187 9.28362L16.9554 5.88867L25.8219 21.3146L29.7187 9.28362ZM15.5087 6.19525L6.3676 22.338H24.7873L15.5087 6.19525ZM29.9127 13.252L26.8318 22.7638L29.9127 24.9268L29.9127 13.252ZM4.33585 22.7515L1.40766 13.255L1.40766 24.7406L4.33585 22.7515ZM24.3763 23.743H6.77092L15.508 33.1719L24.3763 23.743ZM5.05625 23.9617L2.04795 26.0052L12.0363 31.4947L5.05625 23.9617ZM29.2691 26.1927L26.0974 23.966L18.8809 31.6387L29.2691 26.1927ZM0 8.16036L15.5051 0L31.3204 8.3728L31.3204 26.7043L15.4962 35L1.6049e-06 26.4836L0 8.16036Z" fill="white"/>
<path d="M18.3594 19.9634C17.9856 20.2863 17.7039 20.4478 17.5142 20.4478C17.3245 20.4478 17.0428 20.2863 16.6691 19.9634C16.2953 19.6404 16.0638 19.3787 15.9746 19.1783C15.9132 19.0614 15.8825 18.6967 15.8825 18.0842V17.0653C15.8825 16.4806 15.9188 16.102 15.9913 15.9294C16.0694 15.7568 16.2953 15.509 16.6691 15.1861C17.0428 14.8631 17.3245 14.7017 17.5142 14.7017C17.7039 14.7017 17.9828 14.8631 18.351 15.1861C18.7192 15.509 18.9535 15.7707 19.0539 15.9712C19.1152 16.0992 19.1459 16.4639 19.1459 17.0653V18.0842C19.1459 18.6688 19.1069 19.0475 19.0288 19.2201C18.9563 19.3927 18.7331 19.6404 18.3594 19.9634ZM17.2632 19.2368C17.3636 19.3203 17.4473 19.362 17.5142 19.362C17.5812 19.362 17.662 19.3203 17.7569 19.2368C17.8573 19.1532 17.927 19.0781 17.9661 19.0113C18.0051 18.9389 18.0247 18.6299 18.0247 18.0842V17.0653C18.0247 16.6031 18.0079 16.3164 17.9744 16.205C17.9466 16.0937 17.8796 15.9962 17.7736 15.9127C17.6732 15.8292 17.5867 15.7874 17.5142 15.7874C17.4473 15.7874 17.3608 15.8292 17.2548 15.9127C17.1544 15.9962 17.0875 16.0825 17.054 16.1716C17.0205 16.2551 17.0038 16.553 17.0038 17.0653V18.0842C17.0038 18.6243 17.0233 18.9305 17.0624 19.0029C17.1014 19.0753 17.1683 19.1532 17.2632 19.2368Z" fill="white"/>
<path d="M13.6327 14.7017C13.8168 14.7017 14.0846 14.8604 14.436 15.1777C14.793 15.4895 15.0385 15.7512 15.1724 15.9628C15.2337 16.063 15.2644 16.2913 15.2644 16.6477C15.2644 16.9984 15.2281 17.2323 15.1556 17.3492C15.0831 17.4606 14.7763 17.6861 14.2352 18.0257C13.6941 18.3598 13.3566 18.6132 13.2227 18.7858C13.178 18.847 13.1557 18.9611 13.1557 19.1282V19.4289H15.2309V20.3476H12.001V19.2117C12.001 18.8832 12.04 18.641 12.1181 18.4851C12.1962 18.3292 12.3664 18.1454 12.6286 17.9339C12.8908 17.7167 13.178 17.5079 13.4904 17.3075C13.8028 17.1015 13.9897 16.9734 14.0511 16.9233C14.1124 16.8732 14.1431 16.7813 14.1431 16.6477C14.1431 16.514 14.1236 16.3915 14.0846 16.2802C14.0511 16.1633 13.9841 16.0519 13.8837 15.9461C13.7833 15.8348 13.6913 15.7791 13.6076 15.7791C13.5295 15.7791 13.4012 15.8849 13.2227 16.0964C13.0442 16.3025 12.927 16.5335 12.8712 16.7897L11.9675 16.2551C12.0456 15.8988 12.266 15.5508 12.6286 15.2111C12.9967 14.8715 13.3315 14.7017 13.6327 14.7017Z" fill="white"/>
<path d="M44.1891 19.3848V23.7898H42.0804V11.8083H46.0694C47.2761 11.8083 48.2016 12.1196 48.8459 12.7422C49.502 13.353 49.83 14.1752 49.83 15.2089V15.9666C49.83 16.6479 49.6836 17.247 49.3907 17.7638C49.0978 18.2807 48.6761 18.6742 48.1254 18.9443C49.0861 20.5889 49.9062 22.204 50.5856 23.7898H48.1782C47.5924 22.3215 46.8953 20.8532 46.087 19.3848H44.1891ZM46.0694 13.7465H44.1891V17.4467H46.0694C46.5849 17.4467 46.9773 17.3174 47.2468 17.059C47.528 16.7888 47.6685 16.4247 47.6685 15.9666V15.2089C47.6685 14.7626 47.528 14.4102 47.2468 14.1517C46.9773 13.8816 46.5849 13.7465 46.0694 13.7465Z" fill="white"/>
<path d="M52.7888 23.7898V11.8083H56.7252C57.9787 11.8083 58.9159 12.1255 59.5368 12.7598C60.1695 13.3941 60.4858 14.2398 60.4858 15.297V16.2309C60.4858 17.2881 60.1695 18.1397 59.5368 18.7858C58.9159 19.4201 57.9787 19.7372 56.7252 19.7372H54.8976V23.7898H52.7888ZM56.7252 13.8346H54.8976V17.711H56.7252C57.2406 17.711 57.6331 17.5817 57.9026 17.3233C58.1837 17.0649 58.3243 16.7008 58.3243 16.2309V15.297C58.3243 14.8389 58.1837 14.4806 57.9026 14.2222C57.6331 13.9638 57.2406 13.8346 56.7252 13.8346Z" fill="white"/>
<path d="M70.7873 23.0145C70.4944 23.1907 70.0083 23.3963 69.3288 23.6312C68.661 23.8544 67.8761 23.966 66.974 23.966C65.9548 23.966 65.0996 23.7546 64.4084 23.3317C63.7289 22.9088 63.2134 22.3274 62.8619 21.5873C62.5105 20.8473 62.3348 20.0015 62.3348 19.0501V16.5304C62.3348 15.5555 62.5105 14.7038 62.8619 13.9755C63.2134 13.2355 63.7347 12.6599 64.4259 12.2488C65.1288 11.8377 66.0075 11.6321 67.0619 11.6321C67.5773 11.6321 68.1104 11.6908 68.661 11.8083C69.2116 11.914 69.815 12.1137 70.471 12.4074L69.8208 14.2575C69.2468 14.0343 68.7489 13.8757 68.3271 13.7817C67.9171 13.676 67.507 13.6231 67.097 13.6231C66.1832 13.6231 65.5213 13.8874 65.1113 14.416C64.7012 14.9329 64.4962 15.6377 64.4962 16.5304V19.0501C64.4962 19.8958 64.7012 20.5889 65.1113 21.1292C65.533 21.6696 66.1891 21.9397 67.0794 21.9397C67.3489 21.9397 67.6418 21.9162 67.9581 21.8692C68.2744 21.8223 68.579 21.7577 68.8719 21.6754V19.0501H66.9389V17.2H70.7873V23.0145Z" fill="white"/>
<path d="M73.4679 23.7898V11.8083H75.4009C76.3264 13.0182 77.205 14.2986 78.0368 15.6494C78.8686 16.9885 79.6242 18.3688 80.3037 19.7901L80.1456 16.2133V11.8083H82.1665V23.7898H80.2334C79.4837 22.3097 78.7046 20.8238 77.8962 19.332C77.0996 17.8284 76.2503 16.413 75.3482 15.0856L75.4888 19.2086V23.7898H73.4679Z" fill="white"/>
<path d="M91.9478 23.8779C91.3503 23.8779 90.87 23.7546 90.5069 23.5079C90.1554 23.2612 89.8977 22.9558 89.7336 22.5917C89.2299 23.0615 88.7437 23.408 88.2751 23.6312C87.8065 23.8544 87.3027 23.966 86.7638 23.966C85.9789 23.966 85.399 23.7135 85.0241 23.2084C84.6609 22.7033 84.4793 22.0631 84.4793 21.2878C84.4793 20.7709 84.5731 20.3187 84.7605 19.9311C84.9597 19.5317 85.2818 19.2204 85.727 18.9972C86.1722 18.774 86.7814 18.6624 87.5546 18.6624C87.8592 18.6624 88.1755 18.6859 88.5035 18.7329C88.8316 18.7681 89.1596 18.8151 89.4876 18.8739V17.8343C89.4876 17.3409 89.3529 17.0062 89.0834 16.83C88.814 16.642 88.4508 16.548 87.9939 16.548C87.6425 16.548 87.2559 16.595 86.8341 16.689C86.4241 16.783 85.9789 16.9298 85.4986 17.1295L84.9187 15.4028C86.1019 14.9211 87.1739 14.6803 88.1345 14.6803C89.0014 14.6803 89.6692 14.8272 90.1378 15.1208C90.6181 15.4145 90.952 15.8021 91.1395 16.2837C91.3269 16.7654 91.4206 17.2822 91.4206 17.8343V21.2702C91.4206 21.4464 91.4675 21.6167 91.5612 21.7811C91.6667 21.9339 91.8658 22.0102 92.1587 22.0102H92.352V23.8779H91.9478ZM86.4299 21.2525C86.4299 21.5697 86.5002 21.8223 86.6408 22.0102C86.7814 22.1864 86.9864 22.2745 87.2559 22.2745C87.5253 22.2745 87.8299 22.204 88.1697 22.0631C88.5094 21.9221 88.9487 21.5932 89.4876 21.0763V20.3187C88.8784 20.213 88.2809 20.1601 87.6952 20.1601C87.2383 20.1601 86.9103 20.2541 86.7111 20.442C86.5237 20.63 86.4299 20.9002 86.4299 21.2525ZM88.978 13.5879H87.2031L88.8901 10.663L90.788 11.4735L88.978 13.5879Z" fill="white"/>
<path d="M99.1323 16.7066C98.5816 16.7066 98.0544 16.7947 97.5507 16.9709C97.0586 17.1354 96.5842 17.4055 96.1273 17.7814V23.7898H94.1064V14.8565H96.0219V16.2309C96.6193 15.6671 97.1524 15.2677 97.621 15.0327C98.0896 14.7978 98.5934 14.6803 99.1323 14.6803V16.7066Z" fill="white"/>
<path d="M102.976 13.165H100.849V11.0683H102.976V13.165ZM102.923 23.7898H100.902V14.8565H102.923V23.7898Z" fill="white"/>
<path d="M113 18.7858V19.843C113 21.0881 112.66 22.0866 111.981 22.8383C111.301 23.5901 110.341 23.966 109.099 23.966C107.857 23.966 106.896 23.5901 106.217 22.8383C105.537 22.0866 105.198 21.0881 105.198 19.843V18.7858C105.198 17.5406 105.532 16.548 106.199 15.808C106.879 15.0562 107.845 14.6803 109.099 14.6803C110.352 14.6803 111.313 15.0562 111.981 15.808C112.66 16.548 113 17.5406 113 18.7858ZM110.926 18.7858C110.926 18.0692 110.768 17.5113 110.452 17.1119C110.136 16.7008 109.685 16.4952 109.099 16.4952C108.513 16.4952 108.062 16.7008 107.746 17.1119C107.429 17.5113 107.271 18.0692 107.271 18.7858V19.843C107.271 20.5595 107.429 21.1233 107.746 21.5345C108.062 21.9456 108.513 22.1512 109.099 22.1512C109.685 22.1512 110.136 21.9456 110.452 21.5345C110.768 21.1233 110.926 20.5595 110.926 19.843V18.7858Z" fill="white"/>
</svg>
